<svg width="28" height="28" viewBox="0 0 28 28" fill="none" xmlns="http://www.w3.org/2000/svg">
<path d="M0.669342 14.0027C0.670893 20.5619 5.44055 26.1467 11.9187 27.1747V17.856H8.53601V14.0027H11.9227V11.0693C11.7713 9.67939 12.246 8.29413 13.2182 7.28925C14.1904 6.28437 15.5591 5.76402 16.9533 5.86934C17.9541 5.8855 18.9523 5.97463 19.94 6.13601V9.41467H18.2547C17.6745 9.33868 17.0912 9.5303 16.669 9.93556C16.2469 10.3408 16.0317 10.9159 16.084 11.4987V14.0027H19.7787L19.188 17.8573H16.084V27.1747C23.09 26.0675 28.0028 19.669 27.2634 12.6148C26.5239 5.5605 20.3911 0.31991 13.3078 0.689576C6.22449 1.05924 0.670468 6.90975 0.669342 14.0027Z" fill="#E6DFC7"/>
</svg>
